<svg width="24" height="24" viewBox="0 0 24 24" fill="none" xmlns="http://www.w3.org/2000/svg">
<path d="M14.5 10.65H9.5" stroke="#292D32" stroke-width="1.5" stroke-linecap="round" stroke-linejoin="round"/>
<path d="M12 8.21002V13.21" stroke="#292D32" stroke-width="1.5" stroke-linecap="round" stroke-linejoin="round"/>
<path d="M16.82 2H7.18001C6.157 2.00238 5.17658 2.40982 4.4532 3.13319C3.72982 3.85657 3.32238 4.83699 3.32001 5.86L3.32001 19.95C3.32001 21.75 4.61001 22.51 6.19001 21.64L11.07 18.93C11.3609 18.7869 11.6808 18.7124 12.005 18.7124C12.3292 18.7124 12.6491 18.7869 12.94 18.93L17.82 21.64C19.4 22.52 20.69 21.76 20.69 19.95V5.86C20.6837 4.83648 20.2736 3.85683 19.5489 3.13402C18.8242 2.41121 17.8435 2.00367 16.82 2Z" stroke="#292D32" stroke-width="1.5" stroke-linecap="round" stroke-linejoin="round"/>
</svg>
