<svg width="24" height="24" viewBox="0 0 24 24" fill="none" xmlns="http://www.w3.org/2000/svg">
<path d="M9.02 3.30272L3.63 7.33393C3.15049 7.73378 2.75923 8.22173 2.47928 8.76901C2.19934 9.31629 2.03638 9.91182 2 10.5205L2 17.6327C2.00131 18.7049 2.44497 19.7329 3.23393 20.492C4.02289 21.251 5.09293 21.6793 6.21 21.6831H17.79C18.9055 21.6798 19.9743 21.253 20.7631 20.4959C21.5519 19.7389 21.9966 18.713 22 17.6423V10.6549C21.9623 10.0119 21.7822 9.38398 21.4718 8.813C21.1614 8.24203 20.7279 7.74108 20.2 7.34352L14.02 3.18466C13.2685 2.7258 12.3917 2.492 11.5013 2.51302C10.6109 2.53405 9.7471 2.80895 9.02 3.30272Z" stroke="#959595" stroke-width="1.5" stroke-linecap="round" stroke-linejoin="round"/>
<path d="M12 17.8439V14.9645" stroke="#959595" stroke-width="1.5" stroke-linecap="round" stroke-linejoin="round"/>
</svg>
