<svg width="24" height="24" viewBox="0 0 24 24" fill="none" xmlns="http://www.w3.org/2000/svg">
<path d="M15.1199 10.6145C15.1199 11.2068 14.9369 11.7857 14.5941 12.2782C14.2512 12.7707 13.764 13.1545 13.1939 13.3811C12.6238 13.6078 11.9964 13.6671 11.3912 13.5516C10.786 13.436 10.2301 13.1508 9.79371 12.732C9.35737 12.3132 9.06022 11.7796 8.93983 11.1987C8.81945 10.6178 8.88123 10.0157 9.11738 9.4685C9.35353 8.9213 9.75342 8.45361 10.2665 8.12456C10.7796 7.7955 11.3828 7.61987 11.9999 7.61987C12.8274 7.61987 13.6209 7.93538 14.2061 8.49697C14.7912 9.05857 15.1199 9.82026 15.1199 10.6145Z" stroke="#D91313" stroke-width="1.5"/>
<path d="M3.61971 8.8676C5.58971 0.55564 18.4197 0.565239 20.3797 8.8772C21.5297 13.753 18.3697 17.8802 15.5997 20.4333C14.6318 21.3293 13.3395 21.83 11.9947 21.83C10.65 21.83 9.35763 21.3293 8.38971 20.4333C5.62971 17.8802 2.46971 13.7434 3.61971 8.8676Z" stroke="#D91313" stroke-width="1.5"/>
</svg>
