<svg width="18" height="22" viewBox="0 0 18 22" fill="none" xmlns="http://www.w3.org/2000/svg">
<path d="M17 6V16C17 20 16 21 12 21H6C2 21 1 20 1 16V6C1 2 2 1 6 1H12C16 1 17 2 17 6Z" stroke="#B4B4B4" stroke-width="1.5" stroke-linecap="round" stroke-linejoin="round"/>
<path d="M11 4.5H7" stroke="#B4B4B4" stroke-width="1.5" stroke-linecap="round" stroke-linejoin="round"/>
<path d="M10.5502 16.55C10.5502 16.8566 10.4593 17.1562 10.289 17.4111C10.1187 17.666 9.87658 17.8647 9.59336 17.982C9.31013 18.0993 8.99848 18.13 8.69781 18.0702C8.39714 18.0104 8.12095 17.8628 7.90418 17.646C7.68741 17.4292 7.53979 17.1531 7.47998 16.8524C7.42017 16.5517 7.45087 16.2401 7.56818 15.9568C7.6855 15.6736 7.88417 15.4315 8.13906 15.2612C8.39396 15.0909 8.69363 15 9.0002 15C9.41128 15 9.80553 15.1633 10.0962 15.454C10.3869 15.7447 10.5502 16.1389 10.5502 16.55Z" stroke="#B4B4B4" stroke-width="1.5" stroke-linecap="round" stroke-linejoin="round"/>
</svg>
