<svg width="24" height="24" viewBox="0 0 24 24" fill="none" xmlns="http://www.w3.org/2000/svg">
<path d="M12.89 6.04553H5.11C4.28599 6.04806 3.49648 6.36337 2.91381 6.92262C2.33114 7.48187 2.00264 8.23965 2 9.03054L2 19.934C2 21.3257 3.04 21.9208 4.31 21.2393L8.24 19.1374C8.47548 19.0283 8.73356 18.9717 8.995 18.9717C9.25644 18.9717 9.51452 19.0283 9.75 19.1374L13.68 21.2393C14.95 21.9208 15.99 21.3257 15.99 19.934V9.03054C15.9913 8.639 15.9121 8.25106 15.7569 7.88895C15.6017 7.52685 15.3736 7.19771 15.0856 6.9204C14.7976 6.64309 14.4554 6.42307 14.0786 6.27294C13.7019 6.12281 13.2979 6.04553 12.89 6.04553Z" stroke="#D91313" stroke-width="1.5" stroke-linecap="round" stroke-linejoin="round"/>
<path d="M16 9.03054V19.934C16 21.3257 14.96 21.9112 13.69 21.2393L9.76 19.1374C9.52274 19.0283 9.26304 18.9717 9 18.9717C8.73696 18.9717 8.47726 19.0283 8.24 19.1374L4.31 21.2393C3.04 21.9112 2 21.3257 2 19.934V9.03054C2.00264 8.23965 2.33114 7.48187 2.91381 6.92262C3.49648 6.36337 4.28599 6.04806 5.11 6.04553H12.89C13.714 6.04806 14.5035 6.36337 15.0862 6.92262C15.6689 7.48187 15.9974 8.23965 16 9.03054Z" stroke="#D91313" stroke-width="1.5" stroke-linecap="round" stroke-linejoin="round"/>
<path d="M22 5.30654V16.21C22 17.6017 20.96 18.1872 19.69 17.5153L16 15.5381V9.03061C15.9974 8.23972 15.6689 7.48194 15.0862 6.92268C14.5035 6.36343 13.714 6.04813 12.89 6.0456H8V5.30654C8.00264 4.51565 8.33114 3.75787 8.91381 3.19862C9.49648 2.63937 10.286 2.32406 11.11 2.32153H18.89C19.714 2.32406 20.5035 2.63937 21.0862 3.19862C21.6689 3.75787 21.9974 4.51565 22 5.30654Z" stroke="#D91313" stroke-width="1.5" stroke-linecap="round" stroke-linejoin="round"/>
</svg>
