<svg width="24" height="24" viewBox="0 0 24 24" fill="none" xmlns="http://www.w3.org/2000/svg">
<path d="M17 7.42552C17 8.37468 16.7068 9.30253 16.1573 10.0917C15.6079 10.8809 14.8271 11.496 13.9134 11.8593C12.9998 12.2225 11.9945 12.3175 11.0246 12.1324C10.0546 11.9472 9.16373 11.4901 8.46447 10.819C7.76521 10.1478 7.289 9.29269 7.09608 8.36177C6.90315 7.43084 7.00217 6.46591 7.3806 5.589C7.75904 4.71209 8.39991 3.96258 9.22215 3.43525C10.0444 2.90792 11.0111 2.62646 12 2.62646C13.3261 2.62646 14.5979 3.13208 15.5355 4.03208C16.4732 4.93207 17 6.15273 17 7.42552Z" stroke="#D91313" stroke-width="1.5" stroke-linecap="round" stroke-linejoin="round"/>
<path d="M19.2098 15.8142L15.6708 19.2119C15.5189 19.3708 15.4152 19.5667 15.3708 19.7782L15.1808 21.0739C15.157 21.1744 15.1602 21.279 15.1899 21.378C15.2197 21.477 15.2751 21.5672 15.351 21.64C15.4269 21.7129 15.5209 21.7661 15.624 21.7947C15.7272 21.8232 15.8362 21.8262 15.9408 21.8034L17.2908 21.621C17.5119 21.5806 17.7165 21.4807 17.8808 21.3331L21.4208 17.9353C21.5974 17.8141 21.7412 17.6542 21.8404 17.4689C21.9397 17.2836 21.9914 17.0783 21.9914 16.8699C21.9914 16.6616 21.9397 16.4563 21.8404 16.271C21.7412 16.0857 21.5974 15.9258 21.4208 15.8046C21.2942 15.6365 21.1276 15.4998 20.9349 15.4058C20.7422 15.3119 20.5289 15.2634 20.3128 15.2643C20.0966 15.2652 19.8839 15.3156 19.692 15.4112C19.5002 15.5068 19.3349 15.645 19.2098 15.8142Z" stroke="#D91313" stroke-width="1.5" stroke-linecap="round" stroke-linejoin="round"/>
<path d="M18.7002 16.3037C18.847 16.8127 19.1286 17.2765 19.5177 17.6499C19.9067 18.0233 20.3899 18.2936 20.9202 18.4345" stroke="#D91313" stroke-width="1.5" stroke-linecap="round" stroke-linejoin="round"/>
<path d="M3.41016 21.8227C3.41016 18.1082 7.26016 15.104 12.0002 15.104C13.0058 15.1017 14.0065 15.2407 14.9702 15.5168" stroke="#D91313" stroke-width="1.5" stroke-linecap="round" stroke-linejoin="round"/>
</svg>
